<svg xmlns="http://www.w3.org/2000/svg" width="100%" height="100%" viewBox="0 0 128 128" role="img" aria-label="AirCost aircraft">
  <defs>
    <linearGradient id="aircost-gradient" x1="20" y1="12" x2="108" y2="116" gradientUnits="userSpaceOnUse">
      <stop stop-color="#0b8fa5"/>
      <stop offset="1" stop-color="#075969"/>
    </linearGradient>
  </defs>
  <rect x="4" y="4" width="120" height="120" rx="28" fill="url(#aircost-gradient)"/>
  <rect x="6" y="6" width="116" height="116" rx="26" fill="none" stroke="#fff" stroke-opacity=".16" stroke-width="4"/>
  <path fill="#fff" d="M64 14c4 0 7 5 8 12l3 26 30 18c5 3 6 7 4 11-2 3-6 4-10 2L76 72l2 22 13 11v7l-23-7v7c0 4-2 6-4 6s-4-2-4-6v-7l-23 7v-7l13-11 2-22-23 11c-4 2-8 1-10-2-2-4-1-8 4-11l30-18 3-26c1-7 4-12 8-12Z"/>
</svg>
